<svg xmlns="http://www.w3.org/2000/svg" width="24" height="24" viewBox="-8 -8 41 41" fill="none" stroke="currentColor" stroke-width="2" stroke-linecap="round" stroke-linejoin="round">
	<g id="user">
		<path d="M20 21v-2a4 4 0 0 0-4-4H8a4 4 0 0 0-4 4v2"></path>
		<circle cx="12" cy="7" r="4"></circle>
	</g>
	<g id="mail">
		<path d="M4 4h16c1.1 0 2 .9 2 2v12c0 1.1-.9 2-2 2H4c-1.1 0-2-.9-2-2V6c0-1.1.9-2 2-2z"></path>
		<polyline points="22,6 12,13 2,6"></polyline>
	</g>
	<g id="phone">
		<path d="M22 16.92v3a2 2 0 0 1-2.18 2 19.79 19.79 0 0 1-8.63-3.07 19.5 19.5 0 0 1-6-6 19.79 19.79 0 0 1-3.07-8.67A2 2 0 0 1 4.11 2h3a2 2 0 0 1 2 1.72 12.84 12.84 0 0 0 .7 2.81 2 2 0 0 1-.45 2.11L8.09 9.91a16 16 0 0 0 6 6l1.27-1.27a2 2 0 0 1 2.11-.45 12.84 12.84 0 0 0 2.81.7A2 2 0 0 1 22 16.92z"></path>
	</g>
	<g id="correct">
		<path d="M22 11.07V12a10 10 0 1 1-5.93-9.14"></path>
		<polyline points="23 3 12 14 9 11"></polyline>
	</g>
	<g id="pending">
		<circle cx="12" cy="12" r="10"></circle>
		<polyline points="12 6 12 12 15 15"></polyline>
	</g>
	<g id="incorrect">
		<circle cx="12" cy="12" r="10"></circle>
		<line x1="15" y1="9" x2="9" y2="15"></line>
		<line x1="9" y1="9" x2="15" y2="15"></line>
	</g>
	<style>
		g {
			display: none;
		}
		g:target {
			display: inline-block;
		}
	</style>
</svg>